<svg version="1.1" id="Layer_1" xmlns="http://www.w3.org/2000/svg" xmlns:xlink="http://www.w3.org/1999/xlink" x="0px" y="0px" width="100%" viewBox="0 0 500 500" enable-background="new 0 0 500 500" xml:space="preserve">

<path fill="#E9EFF1" opacity="1.000000" stroke="none" d="
M193.976974,222.079056 
	C189.799377,217.762894 185.621780,213.446732 181.444168,209.130569 
	C181.726608,208.736862 182.009033,208.343155 182.291473,207.949448 
	C183.949844,208.347290 185.589890,208.862640 187.269455,209.124573 
	C201.935532,211.411743 216.591888,213.770859 231.284409,215.876297 
	C246.281860,218.025452 256.578613,226.227066 259.962585,239.756134 
	C259.801422,240.570755 259.908081,240.764465 260.157410,240.879578 
	C260.388733,245.471008 260.769836,250.060837 260.819366,254.654236 
	C260.914215,263.451080 260.820618,272.250000 260.360992,281.512390 
	C256.681183,282.844543 253.396317,284.550690 250.222824,284.363983 
	C246.419479,284.140167 245.743057,285.343262 246.329773,288.485352 
	C246.803329,291.021454 247.336349,293.546448 247.842972,296.076385 
	C243.571091,292.949127 243.262482,288.182648 243.174805,283.620056 
	C242.953964,272.129486 243.059875,260.631836 243.100571,249.137283 
	C243.121841,243.129868 240.592331,238.687805 235.137207,235.220886 
	C234.962280,234.416443 234.977509,234.191772 235.343903,233.977966 
	C237.128983,234.667969 238.562912,235.347107 240.153229,236.323486 
	C242.324585,238.837204 244.339569,241.053696 247.060867,244.047150 
	C248.542175,239.811798 249.335617,236.599899 250.772919,233.708023 
	C252.118546,231.000626 251.795242,229.373230 249.523743,227.297867 
	C243.968948,222.222748 237.165482,220.203995 230.116425,219.093246 
	C218.862228,217.319885 207.529938,216.035706 196.219269,214.636826 
	C195.054489,214.492767 193.286194,214.569397 192.746002,215.272278 
	C192.139114,216.061920 192.432327,217.712448 192.662476,218.926163 
	C192.870071,220.020859 193.521362,221.031403 193.976974,222.079056 
z" data-index="1" style="visibility: visible; opacity: 1;"></path>
<path fill="#41753E" opacity="1.000000" stroke="none" d="
M284.959198,231.250885 
	C279.564270,231.810654 274.179565,232.577927 268.770172,232.843414 
	C266.030060,232.977905 256.706207,224.269897 256.440430,221.568924 
	C256.330933,220.456360 256.949127,218.881287 257.786407,218.128220 
	C264.555695,212.040039 271.455933,206.097443 278.855835,200.319748 
	C282.882751,204.778214 278.631653,206.548889 276.598206,208.910141 
	C275.326202,210.387253 273.669556,211.533188 272.185516,212.827728 
	C275.022766,214.019272 277.574341,213.372345 279.500153,214.193314 
	C281.608948,215.092316 284.275269,217.109512 284.683258,219.060837 
	C285.501190,222.972382 284.946991,227.170853 284.959198,231.250885 
z" data-index="2" style="visibility: visible; opacity: 1;"></path>
<path fill="#DFE6E7" opacity="1.000000" stroke="none" d="
M194.084503,222.380798 
	C193.521362,221.031403 192.870071,220.020859 192.662476,218.926163 
	C192.432327,217.712448 192.139114,216.061920 192.746002,215.272278 
	C193.286194,214.569397 195.054489,214.492767 196.219269,214.636826 
	C207.529938,216.035706 218.862228,217.319885 230.116425,219.093246 
	C237.165482,220.203995 243.968948,222.222748 249.523743,227.297867 
	C251.795242,229.373230 252.118546,231.000626 250.772919,233.708023 
	C249.335617,236.599899 248.542175,239.811798 247.060867,244.047150 
	C244.339569,241.053696 242.324585,238.837204 240.155869,235.917084 
	C240.535980,231.396545 238.577713,229.116486 235.157608,228.234650 
	C231.377167,227.259888 227.510544,226.465332 223.632568,226.059692 
	C218.131180,225.484222 212.588333,225.229019 207.056396,225.062180 
	C205.061508,225.002029 201.838242,224.032288 202.871674,228.248627 
	C202.525040,228.107040 202.178406,227.965439 201.330307,226.997650 
	C199.820557,225.802567 198.812271,225.433670 197.803986,225.064774 
	C196.599991,224.270706 195.396011,223.476639 194.084503,222.380798 
z" data-index="3" style="visibility: visible; opacity: 1;"></path>
<path fill="#4A7D40" opacity="1.000000" stroke="none" d="
M285.357300,231.213120 
	C284.946991,227.170853 285.501190,222.972382 284.683258,219.060837 
	C284.275269,217.109512 281.608948,215.092316 279.500153,214.193314 
	C277.574341,213.372345 275.022766,214.019272 272.185516,212.827728 
	C273.669556,211.533188 275.326202,210.387253 276.598206,208.910141 
	C278.631653,206.548889 282.882751,204.778214 279.191772,200.255142 
	C285.465515,195.392273 291.942963,190.803329 298.963684,186.382568 
	C300.328552,186.004471 301.150085,185.458160 301.971649,184.911850 
	C301.971649,184.911850 301.941864,184.979752 302.198303,184.967484 
	C302.639282,184.963058 302.823883,184.970901 303.002930,185.363159 
	C302.250549,187.094772 301.676636,188.582489 300.720184,189.759277 
	C298.857330,192.051224 296.597198,194.031601 294.828796,196.386688 
	C290.793884,201.760178 289.572968,209.541138 281.673004,211.591339 
	C281.626831,211.603348 281.720856,212.155594 281.811584,213.108841 
	C284.537567,212.267868 287.156067,211.509109 289.741333,210.650299 
	C293.081177,209.540833 295.573669,209.420013 297.197845,213.615387 
	C298.374390,216.654449 300.950317,219.151733 302.945312,221.938110 
	C302.988434,221.985580 303.075195,222.080017 303.075195,222.080017 
	C297.301941,225.111801 291.528687,228.143570 285.357300,231.213120 
z" data-index="4" style="visibility: visible; opacity: 1;"></path>
<path fill="#5A8F45" opacity="1.000000" stroke="none" d="
M322.935028,201.487274 
	C319.055115,209.634506 313.277618,216.113068 305.373047,220.731995 
	C305.012207,219.947281 305.017090,219.473373 305.328644,218.860596 
	C308.029724,216.691666 310.596893,214.828873 312.770111,212.584610 
	C314.958160,210.325073 314.274200,208.108948 311.310181,207.346771 
	C309.227844,206.811310 306.880859,206.912064 304.713104,207.195618 
	C301.629761,207.598938 298.602478,208.430756 295.551270,209.079498 
	C295.291382,208.608307 295.031525,208.137115 294.771637,207.665924 
	C296.787903,204.328964 299.076355,201.122955 300.758789,197.625412 
	C303.514648,191.896423 309.873260,188.183975 310.327515,180.970901 
	C311.446930,180.000931 312.240753,179.081070 313.034576,178.161194 
	C313.034576,178.161194 313.196411,178.022491 313.626343,177.998474 
	C315.034424,177.324707 316.012573,176.674957 316.990692,176.025208 
	C316.990692,176.025208 317.000824,175.982468 317.355713,175.977173 
	C318.809509,175.367020 319.908417,174.762161 321.007355,174.157318 
	C321.007355,174.157318 321.127167,174.004517 321.500732,173.992065 
	C322.257935,173.985062 322.641541,173.990540 323.005493,174.378143 
	C319.348755,182.313278 315.752655,189.886383 312.056732,197.410477 
	C310.307068,200.972382 311.015869,202.216843 315.107147,201.953186 
	C317.732758,201.784012 320.336151,201.270599 322.972717,201.056107 
	C322.995880,201.200729 322.935028,201.487274 322.935028,201.487274 
z" data-index="5" style="visibility: visible; opacity: 1;"></path>
<path fill="#46793E" opacity="1.000000" stroke="none" d="
M236.810257,202.410995 
	C236.987885,195.761490 237.165527,189.111969 237.761124,182.409241 
	C238.452942,182.578873 238.726791,182.801743 239.154785,183.321136 
	C240.947556,185.877869 242.350647,188.368500 244.281754,190.342636 
	C246.978073,193.099091 250.068680,195.469864 252.992813,198.379883 
	C252.997314,199.502518 252.999573,200.250961 252.749146,201.221802 
	C253.147141,203.196457 253.797836,204.948669 254.448532,206.700882 
	C254.958908,206.538879 255.469269,206.376877 255.979645,206.214874 
	C255.979645,204.470230 255.979645,202.725571 255.981384,200.532181 
	C255.983047,197.389297 255.983002,194.695160 256.435669,192.001114 
	C260.991699,191.903946 265.537659,193.196167 268.099304,188.288498 
	C268.285492,187.931793 269.329590,188.022858 270.008881,187.961868 
	C270.042938,188.017990 270.084320,188.142578 270.084320,188.142578 
	C270.423004,195.652252 269.772552,202.630981 262.447449,207.233582 
	C259.412720,209.140411 256.962677,211.977844 253.796188,214.390244 
	C249.361832,208.430664 245.584488,202.315689 241.251144,196.624039 
	C240.147293,195.174179 237.388046,195.367477 237.047272,198.444794 
	C236.901672,199.759491 236.885315,201.088486 236.810257,202.410995 
z" data-index="6" style="visibility: visible;"></path>
<path fill="#71AC4A" opacity="1.000000" stroke="none" d="
M176.974426,198.087219 
	C174.393646,195.094238 171.297760,192.401169 169.342880,189.043747 
	C165.654617,182.709274 162.623199,175.992371 159.318756,169.434418 
	C159.767593,168.947510 160.216415,168.460602 160.665237,167.973694 
	C166.560684,170.454056 172.349670,173.241974 178.381073,175.329453 
	C184.582504,177.475769 191.020538,178.938507 197.414215,181.155182 
	C196.659317,181.734909 195.845215,181.859833 194.773254,181.976547 
	C194.343430,181.965561 194.171463,181.962784 193.768372,181.689423 
	C188.174271,178.976471 183.098938,179.247910 182.246017,182.542755 
	C180.943848,187.573151 178.027298,190.286682 171.726501,191.112762 
	C174.064880,193.290802 175.519821,194.645996 176.977005,196.348846 
	C176.977631,197.160095 176.976044,197.623657 176.974426,198.087219 
z" data-index="7" style="visibility: visible;"></path>
<path fill="#629A45" opacity="1.000000" stroke="none" d="
M322.949524,200.911499 
	C320.336151,201.270599 317.732758,201.784012 315.107147,201.953186 
	C311.015869,202.216843 310.307068,200.972382 312.056732,197.410477 
	C315.752655,189.886383 319.348755,182.313278 323.338226,174.340927 
	C324.491272,173.199585 325.291931,172.477600 326.092560,171.755615 
	C326.092560,171.755615 326.272949,171.697083 326.730774,171.788544 
	C329.065125,170.825500 330.941589,169.770996 332.818054,168.716492 
	C332.818054,168.716476 332.757629,168.709946 333.107574,168.838318 
	C333.903046,170.058533 334.971069,171.354370 334.691162,172.208542 
	C333.093262,177.085220 331.292755,181.905624 329.331604,186.650299 
	C327.342957,191.461365 325.087891,196.162323 322.949524,200.911499 
z" data-index="8" style="visibility: visible;"></path>
<path fill="#71AC4A" opacity="1.000000" stroke="none" d="
M250.034943,162.087280 
	C253.022034,159.371994 256.009125,156.656708 259.533875,153.632355 
	C267.698273,150.017303 274.734772,145.078400 283.647797,144.144684 
	C282.995697,146.912659 282.512878,148.962036 282.030060,151.011429 
	C282.030060,151.011429 282.004913,151.003021 281.791565,151.165222 
	C281.370087,151.809235 281.162018,152.291061 280.953918,152.772903 
	C279.553101,156.527603 278.152283,160.282303 276.445496,163.887512 
	C276.321320,162.023026 276.503143,160.308075 276.782990,157.668060 
	C274.341797,158.454483 272.614105,159.153107 270.819855,159.553757 
	C268.479736,160.076309 265.990570,160.986008 263.734161,160.637466 
	C255.998672,159.442551 256.026764,159.260712 255.715668,167.287354 
	C255.308350,170.400818 255.177216,173.219574 255.038483,176.286392 
	C255.030884,176.534439 255.016220,177.030548 254.744629,176.759750 
	C252.993683,171.688400 251.514313,166.887833 250.034943,162.087280 
z" data-index="9" style="visibility: visible;"></path>
<path fill="#629A45" opacity="1.000000" stroke="none" d="
M340.936768,129.341095 
	C342.006042,129.223358 343.075317,129.105621 344.771515,129.251892 
	C348.913300,132.978256 345.606445,136.277969 345.166046,139.649445 
	C344.941406,141.368942 343.984772,144.005203 344.735535,144.668106 
	C348.388824,147.893845 345.900146,150.893738 344.673035,153.964020 
	C333.124207,153.114944 329.367279,147.702820 332.326233,136.255905 
	C331.174438,136.149063 330.055634,136.045288 329.013916,135.613510 
	C330.706512,133.960114 332.322083,132.634705 333.937622,131.309311 
	C334.403961,131.232574 334.870270,131.155838 335.819336,131.228821 
	C336.576447,131.189240 336.850800,130.999939 337.125122,130.810638 
	C337.125122,130.810623 337.288818,130.528641 337.664795,130.800629 
	C339.006134,130.495438 339.971436,129.918274 340.936768,129.341095 
z" data-index="10" style="visibility: visible;"></path>
<path fill="#7CB84D" opacity="1.000000" stroke="none" d="
M333.546509,131.283920 
	C332.322083,132.634705 330.706512,133.960114 328.723419,135.775848 
	C325.867371,138.804626 323.378906,141.343048 320.566895,143.972565 
	C316.844513,147.723465 313.445709,151.383286 309.729492,154.861969 
	C304.875488,149.977844 308.121765,144.037216 307.549072,138.405487 
	C303.277405,139.760391 299.720673,140.888519 296.163971,142.016647 
	C303.076691,136.256134 311.705414,135.449631 320.026459,133.772888 
	C324.394318,132.892715 328.778564,132.094009 333.546509,131.283920 
z" data-index="11" style="visibility: visible;"></path>
<path fill="#46793E" opacity="1.000000" stroke="none" d="
M204.872391,187.984070 
	C208.986191,194.462173 212.827942,201.055206 214.521606,210.253036 
	C206.900146,208.769165 200.277374,207.479721 193.140366,205.812347 
	C192.082977,204.955048 191.539825,204.475693 191.046204,203.635925 
	C192.391769,200.523270 193.687805,197.771011 194.970200,195.047729 
	C201.314148,197.726166 204.701736,195.127808 204.827911,187.957245 
	C204.846725,187.938721 204.872391,187.984070 204.872391,187.984070 
z" data-index="12" style="visibility: visible; opacity: 1;"></path>
<path fill="#69A146" opacity="1.000000" stroke="none" d="
M345.017883,153.999451 
	C345.900146,150.893738 348.388824,147.893845 344.735535,144.668106 
	C343.984772,144.005203 344.941406,141.368942 345.166046,139.649445 
	C345.606445,136.277969 348.913300,132.978256 345.176514,129.216599 
	C345.416443,128.619461 345.878265,128.321625 347.036377,127.996048 
	C351.921661,126.856010 356.110748,125.743713 361.026306,124.438499 
	C360.427460,126.914696 359.899841,129.096344 359.372253,131.277985 
	C359.372253,131.277985 359.371918,131.334137 359.182220,131.295380 
	C358.873413,131.302032 358.754333,131.347443 358.635193,131.392853 
	C358.757629,131.595215 358.880035,131.797577 359.002441,131.999939 
	C354.435974,140.456833 349.933563,148.949615 345.238312,157.334427 
	C344.477081,158.693787 342.860443,159.574127 341.328979,160.446289 
	C341.019928,159.810593 341.020996,159.404480 341.313965,158.853088 
	C342.743195,157.138367 343.880554,155.568909 345.017883,153.999451 
z" data-index="13" style="visibility: visible;"></path>
<path fill="#4F843E" opacity="1.000000" stroke="none" d="
M310.046875,155.043091 
	C313.445709,151.383286 316.844513,147.723465 320.816650,144.190720 
	C318.429901,150.296432 315.469910,156.275085 312.236603,162.805710 
	C319.064697,163.183807 325.497345,163.540009 331.955505,163.931610 
	C331.981018,163.967010 332.033478,164.036728 332.033478,164.036728 
	C324.502716,167.600449 316.958679,171.136475 309.451050,174.748276 
	C307.682953,175.598877 306.037781,176.704971 303.920258,177.891174 
	C303.504456,178.088837 303.185577,178.346115 303.185577,178.346130 
	C302.710449,178.519501 302.235321,178.692871 301.380371,178.665405 
	C301.000519,178.464569 301.008179,178.015701 301.307495,177.856659 
	C306.728333,172.122772 311.569885,166.443207 309.115967,157.699005 
	C309.518524,156.623596 309.782715,155.833344 310.046875,155.043091 
z" data-index="14" style="visibility: visible;"></path>
<path fill="#71AC4A" opacity="1.000000" stroke="none" d="
M309.729492,154.861969 
	C309.782715,155.833344 309.518524,156.623596 308.848419,157.892639 
	C306.973022,159.943466 305.503540,161.515533 303.811279,162.814331 
	C302.493713,161.855865 300.848633,161.421265 300.402130,160.440811 
	C298.722229,156.751770 296.969543,152.980133 296.161652,149.050781 
	C295.632233,146.475891 294.727478,146.605667 292.551727,147.064667 
	C291.872925,146.971344 291.600861,146.938171 291.328827,146.904984 
	C292.735779,145.380539 294.142761,143.856079 295.856842,142.174133 
	C299.720673,140.888519 303.277405,139.760391 307.549072,138.405487 
	C308.121765,144.037216 304.875488,149.977844 309.729492,154.861969 
z" data-index="15" style="visibility: visible;"></path>
<path fill="#4A7D40" opacity="1.000000" stroke="none" d="
M301.008179,178.015717 
	C301.008179,178.015701 301.000519,178.464569 300.994995,178.688873 
	C295.582458,182.305115 290.175446,185.697037 284.423798,188.827545 
	C285.121338,185.503143 281.754974,179.356537 278.286499,177.989380 
	C279.004242,174.815018 279.721985,171.640656 280.905579,168.352448 
	C282.843811,166.815323 284.316162,165.391998 285.681885,164.071777 
	C287.592896,169.166809 288.980408,173.515366 290.911957,177.607117 
	C291.467438,178.783737 293.591980,179.219620 295.209869,179.881927 
	C295.689575,179.570206 295.874634,179.312775 295.986145,178.993073 
	C295.994476,178.989670 295.988190,178.972122 296.358093,178.976959 
	C298.154755,178.659775 299.581451,178.337753 301.008179,178.015717 
z" data-index="16" style="visibility: visible;"></path>
<path fill="#41753E" opacity="1.000000" stroke="none" d="
M236.785828,202.731171 
	C236.885315,201.088486 236.901672,199.759491 237.047272,198.444794 
	C237.388046,195.367477 240.147293,195.174179 241.251144,196.624039 
	C245.584488,202.315689 249.361832,208.430664 253.568634,214.642883 
	C253.174698,217.465378 251.747894,217.902802 249.424683,216.791992 
	C246.471924,215.380188 243.360733,214.296387 240.424316,212.854416 
	C236.206070,210.782974 236.959000,206.706635 236.785828,202.731171 
z" data-index="17" style="visibility: visible;"></path>
<path fill="#D6DEE0" opacity="1.000000" stroke="none" d="
M247.933746,296.410339 
	C247.336349,293.546448 246.803329,291.021454 246.329773,288.485352 
	C245.743057,285.343262 246.419479,284.140167 250.222824,284.363983 
	C253.396317,284.550690 256.681183,282.844543 260.275330,281.971771 
	C260.704681,286.326080 260.775452,290.685333 260.355286,295.505554 
	C256.198090,295.647644 253.154327,296.054688 253.998810,300.996185 
	C252.007385,299.578888 250.015961,298.161591 247.933746,296.410339 
z" data-index="18" style="visibility: visible; opacity: 1;"></path>
<path fill="#5A8F45" opacity="1.000000" stroke="none" d="
M190.996674,203.996338 
	C191.539825,204.475693 192.082977,204.955048 192.783981,205.659332 
	C186.815918,205.405670 181.389023,203.379501 177.057007,198.416901 
	C176.976044,197.623657 176.977631,197.160095 177.307297,196.207748 
	C181.421219,194.438385 184.882431,192.955780 186.089279,188.458481 
	C186.501770,186.921326 187.968796,185.486603 189.290833,184.424225 
	C190.645615,183.335556 192.412811,182.760086 193.999496,181.959991 
	C194.171463,181.962784 194.343430,181.965561 194.852112,182.351562 
	C197.419769,183.147934 199.650711,183.561081 201.881653,183.974243 
	C201.881653,183.974243 202.102402,184.410782 202.079407,184.998566 
	C202.047501,186.045715 202.038589,186.505081 201.653656,186.987915 
	C200.797516,187.122818 200.010498,187.091705 199.882706,187.366806 
	C197.472885,192.554733 194.354813,191.355850 190.939163,188.489899 
	C190.319763,187.970184 189.444611,187.755264 187.126251,186.666245 
	C193.132126,193.993622 185.450638,196.122559 183.885941,201.310349 
	C186.339432,202.237122 188.668045,203.116730 190.996674,203.996338 
z" data-index="19" style="visibility: visible; opacity: 1;"></path>
<path fill="#629A45" opacity="1.000000" stroke="none" d="
M291.155640,147.174133 
	C291.600861,146.938171 291.872925,146.971344 292.507233,147.436249 
	C291.133209,154.110550 295.623840,163.477402 302.005005,167.383469 
	C300.635284,169.820206 299.321075,171.912766 297.644135,173.994843 
	C293.777649,169.390778 290.273956,164.797211 286.397156,159.714493 
	C286.252960,159.779465 284.967743,160.358612 283.682526,160.937744 
	C286.115845,156.439575 288.549133,151.941437 291.155640,147.174133 
z" data-index="20" style="visibility: visible;"></path>
<path fill="#4F843E" opacity="1.000000" stroke="none" d="
M225.114227,192.972824 
	C227.475143,197.056381 229.836060,201.139938 231.908661,205.489044 
	C227.572342,202.633652 223.087112,201.122528 217.677673,202.041962 
	C217.236694,202.053131 217.060425,202.061813 216.884155,202.070511 
	C216.884155,202.070511 216.940552,202.006699 216.946762,201.698914 
	C216.344513,200.582031 215.736053,199.772934 215.127594,198.963837 
	C215.127594,198.963837 215.022278,198.949860 214.984985,198.636536 
	C214.677933,197.880920 214.408173,197.438599 214.138412,196.996292 
	C213.824509,196.484573 213.510605,195.972855 213.439346,194.903244 
	C212.874237,191.839355 212.066483,189.333344 210.905884,185.732697 
	C213.607941,186.941406 215.458420,187.749878 217.292282,188.594406 
	C219.597641,189.656036 221.889420,190.747192 224.187057,191.825607 
	C224.187057,191.825607 224.155670,191.932983 224.211456,192.157394 
	C224.549561,192.578812 224.831894,192.775818 225.114227,192.972824 
z" data-index="21" style="visibility: visible;"></path>
<path fill="#629A45" opacity="1.000000" stroke="none" d="
M255.046082,176.038345 
	C255.177216,173.219574 255.308350,170.400818 256.139374,167.291534 
	C262.001709,167.983658 267.109039,169.147842 271.862091,165.368988 
	C272.802246,164.621536 274.718536,165.101852 276.184662,165.015991 
	C275.135773,168.740494 274.086884,172.464996 272.701843,176.323395 
	C271.787506,175.777206 271.209351,175.097122 270.631165,174.417053 
	C265.864166,179.071945 260.217163,175.267654 255.046082,176.038345 
z" data-index="22" style="visibility: visible;"></path>
<path fill="#518743" opacity="1.000000" stroke="none" d="
M255.038483,176.286392 
	C260.217163,175.267654 265.864166,179.071945 270.631165,174.417053 
	C271.209351,175.097122 271.787506,175.777206 272.586761,176.677887 
	C272.104736,180.504318 271.401642,184.110168 270.391418,187.929291 
	C270.084320,188.142578 270.042938,188.017990 270.014709,187.590652 
	C269.532959,185.814789 269.079498,184.466263 268.942780,184.059708 
	C263.685120,185.170349 259.347931,186.086548 255.007019,186.548798 
	C255.007568,183.073410 255.011902,180.051987 255.016220,177.030548 
	C255.016220,177.030548 255.030884,176.534439 255.038483,176.286392 
z" data-index="23" style="visibility: visible; opacity: 1;"></path>
<path fill="#5A8F45" opacity="1.000000" stroke="none" d="
M253.001831,200.999390 
	C252.999573,200.250961 252.997314,199.502518 252.996002,197.993317 
	C249.806442,191.817139 246.953613,186.156494 243.277115,181.094025 
	C241.544754,178.708618 239.514160,180.258148 239.000656,183.024612 
	C238.726791,182.801743 238.452942,182.578873 238.045990,182.123444 
	C238.667084,179.741165 239.421280,177.591461 240.715652,175.093536 
	C243.303665,172.775757 245.372665,173.471130 246.556839,175.421768 
	C248.942245,179.351166 250.862503,183.560745 253.052628,187.612595 
	C253.530365,188.496429 254.335236,189.203415 255.019257,190.286316 
	C255.360352,191.054199 255.671661,191.527603 255.982956,192.001007 
	C255.983002,194.695160 255.983047,197.389297 255.609589,200.537903 
	C254.491318,200.994705 253.746567,200.997055 253.001831,200.999390 
z" data-index="24" style="visibility: visible; opacity: 1;"></path>
<path fill="#629A45" opacity="1.000000" stroke="none" d="
M254.989456,189.991852 
	C254.335236,189.203415 253.530365,188.496429 253.052628,187.612595 
	C250.862503,183.560745 248.942245,179.351166 246.556839,175.421768 
	C245.372665,173.471130 243.303665,172.775757 240.915146,174.822678 
	C243.533844,170.742691 246.493240,166.585373 249.743790,162.257675 
	C251.514313,166.887833 252.993683,171.688400 254.744629,176.759750 
	C255.011902,180.051987 255.007568,183.073410 255.002319,186.922485 
	C254.997406,188.497360 254.993423,189.244598 254.989456,189.991852 
z" data-index="25" style="visibility: visible; opacity: 1;"></path>
<path fill="#D6DEE0" opacity="1.000000" stroke="none" d="
M202.928314,228.324768 
	C201.838242,224.032288 205.061508,225.002029 207.056396,225.062180 
	C212.588333,225.229019 218.131180,225.484222 223.632568,226.059692 
	C227.510544,226.465332 231.377167,227.259888 235.157608,228.234650 
	C238.577713,229.116486 240.535980,231.396545 239.999481,235.619843 
	C238.562912,235.347107 237.128983,234.667969 235.108856,233.724854 
	C225.177094,227.023712 214.350220,230.121445 204.217239,228.752716 
	C203.806488,228.635437 203.395721,228.518158 202.928314,228.324768 
z" data-index="26" style="visibility: visible; opacity: 1;"></path>
<path fill="#69A146" opacity="1.000000" stroke="none" d="
M276.264404,164.926361 
	C274.718536,165.101852 272.802246,164.621536 271.862091,165.368988 
	C267.109039,169.147842 262.001709,167.983658 256.415558,166.996826 
	C256.026764,159.260712 255.998672,159.442551 263.734161,160.637466 
	C265.990570,160.986008 268.479736,160.076309 270.819855,159.553757 
	C272.614105,159.153107 274.341797,158.454483 276.782990,157.668060 
	C276.503143,160.308075 276.321320,162.023026 276.209198,164.171936 
	C276.278870,164.605865 276.344147,164.836746 276.264404,164.926361 
z" data-index="27" style="visibility: visible;"></path>
<path fill="#69A146" opacity="1.000000" stroke="none" d="
M322.972717,201.056122 
	C325.087891,196.162323 327.342957,191.461365 329.331604,186.650299 
	C331.292755,181.905624 333.093262,177.085220 334.691162,172.208542 
	C334.971069,171.354370 333.903046,170.058533 333.112488,168.808319 
	C335.622192,167.119934 338.476990,165.589920 341.331757,164.059906 
	C341.752625,164.362640 342.173492,164.665390 342.594391,164.968124 
	C336.208862,177.025604 329.823334,189.083069 323.186401,201.313904 
	C322.935028,201.487274 322.995880,201.200729 322.972717,201.056122 
z" data-index="28" style="visibility: visible;"></path>
<path fill="#5A8F45" opacity="1.000000" stroke="none" d="
M283.451416,161.248230 
	C284.967743,160.358612 286.252960,159.779465 286.397156,159.714493 
	C290.273956,164.797211 293.777649,169.390778 297.505829,174.302948 
	C297.149597,176.071747 296.568909,177.521942 295.988190,178.972122 
	C295.988190,178.972122 295.994476,178.989670 295.773438,179.105743 
	C295.287994,179.422592 295.102875,179.680359 294.997131,179.995117 
	C293.591980,179.219620 291.467438,178.783737 290.911957,177.607117 
	C288.980408,173.515366 287.592896,169.166809 285.681885,164.071777 
	C284.316162,165.391998 282.843811,166.815323 281.159180,168.086472 
	C281.704681,165.809113 282.462463,163.683914 283.451416,161.248230 
z" data-index="29" style="visibility: visible;"></path>
<path fill="#41753E" opacity="1.000000" stroke="none" d="
M278.200897,178.107864 
	C281.754974,179.356537 285.121338,185.503143 284.060394,188.881775 
	C281.470398,190.982437 278.899200,192.767471 276.328003,194.552505 
	C276.357849,191.432892 276.223114,188.299316 276.485748,185.199432 
	C276.620422,183.609818 277.464996,182.080353 277.994446,179.916855 
	C277.971802,179.038727 278.003693,178.774734 278.095856,178.518036 
	C278.095856,178.518036 278.115295,178.226349 278.200897,178.107864 
z" data-index="30" style="visibility: visible; opacity: 1;"></path>
<path fill="#DFE6E7" opacity="1.000000" stroke="none" d="
M204.521210,228.932617 
	C214.350220,230.121445 225.177094,227.023712 234.757706,233.713989 
	C234.977509,234.191772 234.962280,234.416443 234.907867,234.976608 
	C230.175720,234.673737 225.427124,234.299820 220.804276,233.327866 
	C215.420471,232.195923 210.146698,230.540665 204.521210,228.932617 
z" data-index="31" style="visibility: visible;"></path>
<path fill="#41753E" opacity="1.000000" stroke="none" d="
M217.942368,202.039474 
	C223.087112,201.122528 227.572342,202.633652 231.960815,205.881470 
	C231.621628,207.323456 230.985336,209.738220 230.254944,209.767029 
	C226.726318,209.906143 223.172379,209.403412 219.280731,208.513245 
	C218.603485,205.945297 218.272934,203.992386 217.942368,202.039474 
z" data-index="32" style="visibility: visible;"></path>
<path fill="#7CB84D" opacity="1.000000" stroke="none" d="
M282.325775,150.848572 
	C282.512878,148.962036 282.995697,146.912659 283.647797,144.144684 
	C274.734772,145.078400 267.698273,150.017303 259.928925,153.556778 
	C266.973816,145.628571 276.962860,143.708466 288.042694,140.575546 
	C285.776886,144.801147 284.199188,147.743423 282.325775,150.848572 
z" data-index="33" style="visibility: visible;"></path>
<path fill="#5A8F45" opacity="1.000000" stroke="none" d="
M224.086884,191.508331 
	C221.889420,190.747192 219.597641,189.656036 217.292282,188.594406 
	C215.458420,187.749878 213.607941,186.941406 210.905884,185.732697 
	C212.066483,189.333344 212.874237,191.839355 213.484604,194.597488 
	C210.816910,191.163086 208.346588,187.476547 205.330505,182.975540 
	C213.418060,182.725693 218.691345,186.985077 224.086884,191.508331 
z" data-index="34" style="visibility: visible;"></path>
<path fill="#71AC4A" opacity="1.000000" stroke="none" d="
M359.670959,131.157669 
	C359.899841,129.096344 360.427460,126.914696 361.026306,124.438499 
	C356.110748,125.743713 351.921661,126.856010 347.333496,127.973984 
	C353.072693,125.554695 359.210999,123.129738 365.349304,120.704773 
	C365.613190,121.091789 365.877075,121.478806 366.140991,121.865822 
	C364.083893,124.922997 362.026794,127.980171 359.670959,131.157669 
z" data-index="35" style="visibility: visible;"></path>
<path fill="#C0C5C6" opacity="1.000000" stroke="none" d="
M254.271896,301.169128 
	C253.154327,296.054688 256.198090,295.647644 260.281433,295.962738 
	C261.086578,302.137848 259.978912,303.106812 254.271896,301.169128 
z" data-index="36" style="visibility: visible;"></path>
<path fill="#4F843E" opacity="1.000000" stroke="none" d="
M341.022064,158.998367 
	C341.020996,159.404480 341.019928,159.810593 341.006439,160.520874 
	C338.259644,161.876221 335.525208,162.927383 332.412140,164.007629 
	C332.033478,164.036728 331.981018,163.967010 332.149902,163.653427 
	C335.219879,161.892685 338.120972,160.445526 341.022064,158.998367 
z" data-index="37" style="visibility: visible;"></path>
<path fill="#69A146" opacity="1.000000" stroke="none" d="
M312.684631,178.162415 
	C312.240753,179.081070 311.446930,180.000931 310.016235,181.116135 
	C307.920959,181.876236 306.462555,182.441010 304.886108,182.865417 
	C304.768066,182.725037 304.518127,182.456619 304.518127,182.456604 
	C307.123657,181.025620 309.729156,179.594635 312.684631,178.162415 
z" data-index="38" style="visibility: visible;"></path>
<path fill="#69A146" opacity="1.000000" stroke="none" d="
M201.809891,183.658997 
	C199.650711,183.561081 197.419769,183.147934 195.109970,182.359772 
	C195.845215,181.859833 196.659317,181.734909 197.693375,181.389221 
	C199.188263,181.893555 200.463196,182.618652 201.809891,183.658997 
z" data-index="39" style="visibility: visible;"></path>
<path fill="#5A8F45" opacity="1.000000" stroke="none" d="
M217.677673,202.041962 
	C218.272934,203.992386 218.603485,205.945297 218.925171,208.269806 
	C218.258423,206.699432 217.600510,204.757492 216.913391,202.443024 
	C217.060425,202.061813 217.236694,202.053131 217.677673,202.041962 
z" data-index="40" style="visibility: visible;"></path>
<path fill="#69A146" opacity="1.000000" stroke="none" d="
M332.450562,168.752472 
	C330.941589,169.770996 329.065125,170.825500 326.781616,171.868591 
	C328.277405,170.834259 330.180206,169.811356 332.450562,168.752472 
z" data-index="41" style="visibility: visible;"></path>
<path fill="#7CB84D" opacity="1.000000" stroke="none" d="
M340.641357,129.354584 
	C339.971436,129.918274 339.006134,130.495438 337.826630,130.820435 
	C338.523621,130.168182 339.434814,129.768112 340.641357,129.354584 
z" data-index="42" style="visibility: visible;"></path>
<path fill="#69A146" opacity="1.000000" stroke="none" d="
M202.029694,186.964447 
	C202.038589,186.505081 202.047501,186.045715 202.046524,185.240936 
	C202.942642,185.720245 203.848633,186.544952 204.813507,187.676865 
	C204.872391,187.984070 204.846725,187.938721 204.535858,187.917603 
	C203.493210,187.585815 202.761444,187.275131 202.029694,186.964447 
z" data-index="43" style="visibility: visible;"></path>
<path fill="#69A146" opacity="1.000000" stroke="none" d="
M325.738434,171.779236 
	C325.291931,172.477600 324.491272,173.199585 323.357880,173.958786 
	C322.641541,173.990540 322.257935,173.985062 321.592743,174.023132 
	C322.668884,173.312042 324.026581,172.557449 325.738434,171.779236 
z" data-index="44" style="visibility: visible;"></path>
<path fill="#69A146" opacity="1.000000" stroke="none" d="
M316.684509,176.061676 
	C316.012573,176.674957 315.034424,177.324707 313.727539,178.031952 
	C314.391998,177.425674 315.385162,176.761902 316.684509,176.061676 
z" data-index="45" style="visibility: visible;"></path>
<path fill="#69A146" opacity="1.000000" stroke="none" d="
M320.680786,174.152145 
	C319.908417,174.762161 318.809509,175.367020 317.376129,175.985199 
	C318.145874,175.381348 319.250061,174.764160 320.680786,174.152145 
z" data-index="46" style="visibility: visible;"></path>
<path fill="#4A7D40" opacity="1.000000" stroke="none" d="
M305.021973,218.999481 
	C305.017090,219.473373 305.012207,219.947281 305.018280,220.777893 
	C304.575470,221.433182 304.121704,221.731781 303.371582,222.055206 
	C303.075195,222.080017 302.988434,221.985580 302.986633,221.599884 
	C303.663879,220.475952 304.342926,219.737717 305.021973,218.999481 
z" data-index="47" style="visibility: visible; opacity: 1;"></path>
<path fill="#69A146" opacity="1.000000" stroke="none" d="
M301.646179,184.870270 
	C301.150085,185.458160 300.328552,186.004471 299.313721,186.361816 
	C299.853851,185.724823 300.587280,185.276749 301.646179,184.870270 
z" data-index="48" style="visibility: visible;"></path>
<path fill="#5A8F45" opacity="1.000000" stroke="none" d="
M215.171906,199.273895 
	C215.736053,199.772934 216.344513,200.582031 216.945694,201.741486 
	C216.364365,201.255859 215.790298,200.419907 215.171906,199.273895 
z" data-index="49" style="visibility: visible;"></path>
<path fill="#E9EFF1" opacity="1.000000" stroke="none" d="
M197.966919,225.292938 
	C198.812271,225.433670 199.820557,225.802567 200.958557,226.576630 
	C200.102142,226.494904 199.115982,226.008011 197.966919,225.292938 
z" data-index="50" style="visibility: visible;"></path>
<path fill="#69A146" opacity="1.000000" stroke="none" d="
M303.008514,184.978760 
	C302.823883,184.970901 302.639282,184.963058 302.178070,184.936401 
	C302.594269,184.198044 303.287140,183.478485 304.249054,182.607788 
	C304.518127,182.456619 304.768066,182.725037 304.756775,183.122879 
	C304.166473,184.006729 303.587494,184.492737 303.008514,184.978760 
z" data-index="51" style="visibility: visible;"></path>
<path fill="#5A8F45" opacity="1.000000" stroke="none" d="
M214.138824,197.272995 
	C214.408173,197.438599 214.677933,197.880920 214.997223,198.584854 
	C214.744278,198.414215 214.441772,197.981949 214.138824,197.272995 
z" data-index="52" style="visibility: visible;"></path>
<path fill="#7CB84D" opacity="1.000000" stroke="none" d="
M281.146851,152.596512 
	C281.162018,152.291061 281.370087,151.809235 281.797791,151.176849 
	C281.791504,151.490921 281.565613,151.955521 281.146851,152.596512 
z" data-index="53" style="visibility: visible;"></path>
<path fill="#4A7D40" opacity="1.000000" stroke="none" d="
M277.936859,178.563202 
	C278.003693,178.774734 277.971802,179.038727 278.029663,179.508881 
	C277.909698,179.475266 277.730255,179.255188 277.626099,179.003891 
	C277.586884,178.909302 277.722137,178.742340 277.936859,178.563202 
z" data-index="54" style="visibility: visible;"></path>
<path fill="#71AC4A" opacity="1.000000" stroke="none" d="
M359.157288,131.885132 
	C358.880035,131.797577 358.757629,131.595215 358.635193,131.392853 
	C358.754333,131.347443 358.873413,131.302032 359.184296,131.323395 
	C359.376068,131.390137 359.312134,131.770309 359.157288,131.885132 
z" data-index="55" style="visibility: visible;"></path>
<path fill="#7CB84D" opacity="1.000000" stroke="none" d="
M336.840546,130.829102 
	C336.850800,130.999939 336.576447,131.189240 336.174622,131.241882 
	C336.216736,131.019318 336.386353,130.933441 336.840546,130.829102 
z" data-index="56" style="visibility: visible;"></path>
<path fill="#C0C5C6" opacity="1.000000" stroke="none" d="
M260.215698,240.723969 
	C259.908081,240.764465 259.801422,240.570755 259.921875,240.143417 
	C260.208405,240.129639 260.297607,240.322968 260.215698,240.723969 
z" data-index="57" style="visibility: visible;"></path>
<path fill="#4A7D40" opacity="1.000000" stroke="none" d="
M303.306885,178.359406 
	C303.185577,178.346115 303.504456,178.088837 303.589447,178.029144 
	C303.674438,177.969452 303.428192,178.372696 303.306885,178.359406 
z" data-index="58" style="visibility: visible;"></path>
<path fill="#5A8F45" opacity="1.000000" stroke="none" d="
M225.030853,192.705261 
	C224.831894,192.775818 224.549561,192.578812 224.157166,192.143829 
	C224.347244,192.083145 224.647354,192.260422 225.030853,192.705261 
z" data-index="59" style="visibility: visible;"></path>
<path fill="#518743" opacity="1.000000" stroke="none" d="
M303.002930,185.363159 
	C303.587494,184.492737 304.166473,184.006729 304.874786,183.263245 
	C306.462555,182.441010 307.920959,181.876236 309.690643,181.166245 
	C309.873260,188.183975 303.514648,191.896423 300.758789,197.625412 
	C299.076355,201.122955 296.787903,204.328964 294.771637,207.665924 
	C295.031525,208.137115 295.291382,208.608307 295.551270,209.079498 
	C298.602478,208.430756 301.629761,207.598938 304.713104,207.195618 
	C306.880859,206.912064 309.227844,206.811310 311.310181,207.346771 
	C314.274200,208.108948 314.958160,210.325073 312.770111,212.584610 
	C310.596893,214.828873 308.029724,216.691666 305.328674,218.860611 
	C304.342926,219.737717 303.663879,220.475952 302.943542,221.552399 
	C300.950317,219.151733 298.374390,216.654449 297.197845,213.615387 
	C295.573669,209.420013 293.081177,209.540833 289.741333,210.650299 
	C287.156067,211.509109 284.537567,212.267868 281.811584,213.108841 
	C281.720856,212.155594 281.626831,211.603348 281.673004,211.591339 
	C289.572968,209.541138 290.793884,201.760178 294.828796,196.386688 
	C296.597198,194.031601 298.857330,192.051224 300.720184,189.759277 
	C301.676636,188.582489 302.250549,187.094772 303.002930,185.363159 
z" data-index="60" style="visibility: visible; opacity: 1;"></path>
<path fill="#4F843E" opacity="1.000000" stroke="none" d="
M239.154785,183.321136 
	C239.514160,180.258148 241.544754,178.708618 243.277115,181.094025 
	C246.953613,186.156494 249.806442,191.817139 252.993774,197.619110 
	C250.068680,195.469864 246.978073,193.099091 244.281754,190.342636 
	C242.350647,188.368500 240.947556,185.877869 239.154785,183.321136 
z" data-index="61" style="visibility: visible;"></path>
<path fill="#4F843E" opacity="1.000000" stroke="none" d="
M255.019257,190.286316 
	C254.993423,189.244598 254.997406,188.497360 255.006073,187.376434 
	C259.347931,186.086548 263.685120,185.170349 268.942780,184.059708 
	C269.079498,184.466263 269.532959,185.814789 269.980652,187.534531 
	C269.329590,188.022858 268.285492,187.931793 268.099304,188.288498 
	C265.537659,193.196167 260.991699,191.903946 256.435669,192.001114 
	C255.671661,191.527603 255.360352,191.054199 255.019257,190.286316 
z" data-index="62" style="visibility: visible;"></path>
<path fill="#4F843E" opacity="1.000000" stroke="none" d="
M252.749146,201.221802 
	C253.746567,200.997055 254.491318,200.994705 255.607849,200.986633 
	C255.979645,202.725571 255.979645,204.470230 255.979645,206.214874 
	C255.469269,206.376877 254.958908,206.538879 254.448532,206.700882 
	C253.797836,204.948669 253.147141,203.196457 252.749146,201.221802 
z" data-index="63" style="visibility: visible;"></path>
<path fill="#69A146" opacity="1.000000" stroke="none" d="
M193.768372,181.689423 
	C192.412811,182.760086 190.645615,183.335556 189.290833,184.424225 
	C187.968796,185.486603 186.501770,186.921326 186.089279,188.458481 
	C184.882431,192.955780 181.421219,194.438385 177.305069,195.860077 
	C175.519821,194.645996 174.064880,193.290802 171.726501,191.112762 
	C178.027298,190.286682 180.943848,187.573151 182.246017,182.542755 
	C183.098938,179.247910 188.174271,178.976471 193.768372,181.689423 
M185.425735,183.485535 
	C185.425735,183.485535 185.520264,183.432205 185.425735,183.485535 
z" data-index="64" style="visibility: visible;"></path>
<path fill="#598D3B" opacity="1.000000" stroke="none" d="
M341.313965,158.853104 
	C338.120972,160.445526 335.219879,161.892685 332.124390,163.618011 
	C325.497345,163.540009 319.064697,163.183807 312.236603,162.805710 
	C315.469910,156.275085 318.429901,150.296432 321.140167,144.099625 
	C323.378906,141.343048 325.867371,138.804626 328.646362,136.103851 
	C330.055634,136.045288 331.174438,136.149063 332.326233,136.255905 
	C329.367279,147.702820 333.124207,153.114944 344.673035,153.964020 
	C343.880554,155.568909 342.743195,157.138367 341.313965,158.853104 
z" data-index="65" style="visibility: visible;"></path>
<path fill="#4F843E" opacity="1.000000" stroke="none" d="
M201.653656,186.987915 
	C202.761444,187.275131 203.493210,187.585815 204.517029,187.936127 
	C204.701736,195.127808 201.314148,197.726166 194.970200,195.047729 
	C193.687805,197.771011 192.391769,200.523270 191.046204,203.635925 
	C188.668045,203.116730 186.339432,202.237122 183.885941,201.310349 
	C185.450638,196.122559 193.132126,193.993622 187.126251,186.666245 
	C189.444611,187.755264 190.319763,187.970184 190.939163,188.489899 
	C194.354813,191.355850 197.472885,192.554733 199.882706,187.366806 
	C200.010498,187.091705 200.797516,187.122818 201.653656,186.987915 
z" data-index="66" style="visibility: visible; opacity: 1;"></path>
<path fill="#41753E" opacity="1.000000" stroke="none" d="
M296.358093,178.976959 
	C296.568909,177.521942 297.149597,176.071747 297.868591,174.313446 
	C299.321075,171.912766 300.635284,169.820206 302.244019,167.173157 
	C303.037079,165.441635 303.535583,164.264603 304.034058,163.087585 
	C305.503540,161.515533 306.973022,159.943466 308.710052,158.177780 
	C311.569885,166.443207 306.728333,172.122772 301.307495,177.856674 
	C299.581451,178.337753 298.154755,178.659775 296.358093,178.976959 
z" data-index="67" style="visibility: visible;"></path>
<path fill="#69A146" opacity="1.000000" stroke="none" d="
M303.811279,162.814331 
	C303.535583,164.264603 303.037079,165.441635 302.299561,166.828979 
	C295.623840,163.477402 291.133209,154.110550 292.913940,147.496384 
	C294.727478,146.605667 295.632233,146.475891 296.161652,149.050781 
	C296.969543,152.980133 298.722229,156.751770 300.402130,160.440811 
	C300.848633,161.421265 302.493713,161.855865 303.811279,162.814331 
z" data-index="68" style="visibility: visible;"></path>
<path fill="#41753E" opacity="1.000000" stroke="none" d="
M295.209869,179.881927 
	C295.102875,179.680359 295.287994,179.422592 295.765137,179.109131 
	C295.874634,179.312775 295.689575,179.570206 295.209869,179.881927 
z" data-index="69" style="visibility: visible;"></path>
<path fill="#5A8F45" opacity="1.000000" stroke="none" d="
M185.472992,183.458862 
	C185.520264,183.432205 185.425735,183.485535 185.472992,183.458862 
z" data-index="70" style="visibility: visible;"></path>
</svg>